<svg width="83" height="22" viewBox="0 0 83 22" fill="none" xmlns="http://www.w3.org/2000/svg">
<rect width="83" height="22" rx="3" fill="#00A9B7" fill-opacity="0.1"/>
<path d="M11.214 16.182C10.2993 16.182 9.51533 15.9673 8.862 15.538C8.218 15.1087 7.76533 14.5207 7.504 13.774L8.624 13.13C9.00667 14.3153 9.87933 14.908 11.242 14.908C11.914 14.908 12.4273 14.7727 12.782 14.502C13.1367 14.222 13.314 13.8533 13.314 13.396C13.314 12.9293 13.1367 12.5793 12.782 12.346C12.4273 12.1127 11.8347 11.8653 11.004 11.604C10.5933 11.4733 10.2807 11.3707 10.066 11.296C9.85133 11.212 9.58067 11.0907 9.254 10.932C8.93667 10.764 8.69867 10.596 8.54 10.428C8.38133 10.2507 8.23667 10.022 8.106 9.742C7.98467 9.462 7.924 9.14467 7.924 8.79C7.924 7.94067 8.22267 7.26867 8.82 6.774C9.41733 6.27 10.1453 6.018 11.004 6.018C11.7787 6.018 12.4507 6.214 13.02 6.606C13.5987 6.998 14.0327 7.516 14.322 8.16L13.23 8.79C12.81 7.782 12.068 7.278 11.004 7.278C10.472 7.278 10.0427 7.40867 9.716 7.67C9.38933 7.93133 9.226 8.286 9.226 8.734C9.226 9.16333 9.38 9.49 9.688 9.714C9.996 9.938 10.528 10.1713 11.284 10.414C11.5547 10.498 11.746 10.5587 11.858 10.596C11.97 10.6333 12.1427 10.6987 12.376 10.792C12.6187 10.8853 12.796 10.96 12.908 11.016C13.02 11.072 13.1693 11.1513 13.356 11.254C13.552 11.3567 13.6967 11.4547 13.79 11.548C13.8833 11.6413 13.9907 11.758 14.112 11.898C14.2427 12.0287 14.336 12.164 14.392 12.304C14.448 12.444 14.4947 12.6073 14.532 12.794C14.5787 12.9713 14.602 13.1627 14.602 13.368C14.602 14.2267 14.2893 14.9127 13.664 15.426C13.0387 15.93 12.222 16.182 11.214 16.182ZM19.4718 16.182C18.4171 16.182 17.5398 15.832 16.8398 15.132C16.1398 14.4227 15.7898 13.5453 15.7898 12.5C15.7898 11.4547 16.1398 10.582 16.8398 9.882C17.5398 9.17267 18.4171 8.818 19.4718 8.818C20.1625 8.818 20.7831 8.986 21.3338 9.322C21.8845 9.64867 22.2951 10.092 22.5658 10.652L21.5438 11.24C21.3665 10.8667 21.0911 10.568 20.7178 10.344C20.3538 10.12 19.9385 10.008 19.4718 10.008C18.7718 10.008 18.1838 10.246 17.7078 10.722C17.2411 11.198 17.0078 11.7907 17.0078 12.5C17.0078 13.2 17.2411 13.788 17.7078 14.264C18.1838 14.74 18.7718 14.978 19.4718 14.978C19.9385 14.978 20.3585 14.8707 20.7318 14.656C21.1051 14.432 21.3898 14.1333 21.5858 13.76L22.6218 14.362C22.3231 14.9127 21.8938 15.356 21.3338 15.692C20.7738 16.0187 20.1531 16.182 19.4718 16.182ZM27.3104 8.818C28.1317 8.818 28.7897 9.07933 29.2844 9.602C29.7791 10.1153 30.0264 10.8153 30.0264 11.702V16H28.8084V11.772C28.8084 11.2027 28.6544 10.764 28.3464 10.456C28.0384 10.1387 27.6137 9.98 27.0724 9.98C26.4657 9.98 25.9757 10.1713 25.6024 10.554C25.2291 10.9273 25.0424 11.506 25.0424 12.29V16H23.8244V6.2H25.0424V10.008C25.5371 9.21467 26.2931 8.818 27.3104 8.818ZM32.5807 13.06C32.7021 13.6853 32.9867 14.1707 33.4347 14.516C33.8921 14.8613 34.4521 15.034 35.1147 15.034C36.0387 15.034 36.7107 14.6933 37.1307 14.012L38.1667 14.6C37.4854 15.6547 36.4587 16.182 35.0867 16.182C33.9761 16.182 33.0707 15.8367 32.3707 15.146C31.6801 14.446 31.3347 13.564 31.3347 12.5C31.3347 11.4453 31.6754 10.568 32.3567 9.868C33.0381 9.168 33.9201 8.818 35.0027 8.818C36.0294 8.818 36.8647 9.182 37.5087 9.91C38.1621 10.6287 38.4887 11.4967 38.4887 12.514C38.4887 12.6913 38.4747 12.8733 38.4467 13.06H32.5807ZM35.0027 9.966C34.3494 9.966 33.8081 10.1527 33.3787 10.526C32.9494 10.89 32.6834 11.38 32.5807 11.996H37.2567C37.1541 11.3333 36.8927 10.8293 36.4727 10.484C36.0527 10.1387 35.5627 9.966 35.0027 9.966ZM45.6712 6.2H46.8892V16H45.6712V14.796C45.0645 15.72 44.1825 16.182 43.0252 16.182C42.0452 16.182 41.2098 15.8273 40.5192 15.118C39.8285 14.3993 39.4832 13.5267 39.4832 12.5C39.4832 11.4733 39.8285 10.6053 40.5192 9.896C41.2098 9.17733 42.0452 8.818 43.0252 8.818C44.1825 8.818 45.0645 9.28 45.6712 10.204V6.2ZM43.1792 15.006C43.8885 15.006 44.4812 14.768 44.9572 14.292C45.4332 13.8067 45.6712 13.2093 45.6712 12.5C45.6712 11.7907 45.4332 11.198 44.9572 10.722C44.4812 10.2367 43.8885 9.994 43.1792 9.994C42.4792 9.994 41.8912 10.2367 41.4152 10.722C40.9392 11.198 40.7012 11.7907 40.7012 12.5C40.7012 13.2093 40.9392 13.8067 41.4152 14.292C41.8912 14.768 42.4792 15.006 43.1792 15.006ZM53.5645 9H54.7825V16H53.5645V14.992C53.0699 15.7853 52.3139 16.182 51.2965 16.182C50.4752 16.182 49.8172 15.9253 49.3225 15.412C48.8279 14.8893 48.5805 14.1847 48.5805 13.298V9H49.7985V13.228C49.7985 13.7973 49.9525 14.2407 50.2605 14.558C50.5685 14.866 50.9932 15.02 51.5345 15.02C52.1412 15.02 52.6312 14.8333 53.0045 14.46C53.3779 14.0773 53.5645 13.494 53.5645 12.71V9ZM56.6369 16V5.78H57.8549V16H56.6369ZM60.5671 13.06C60.6884 13.6853 60.9731 14.1707 61.4211 14.516C61.8784 14.8613 62.4384 15.034 63.1011 15.034C64.0251 15.034 64.6971 14.6933 65.1171 14.012L66.1531 14.6C65.4717 15.6547 64.4451 16.182 63.0731 16.182C61.9624 16.182 61.0571 15.8367 60.3571 15.146C59.6664 14.446 59.3211 13.564 59.3211 12.5C59.3211 11.4453 59.6617 10.568 60.3431 9.868C61.0244 9.168 61.9064 8.818 62.9891 8.818C64.0157 8.818 64.8511 9.182 65.4951 9.91C66.1484 10.6287 66.4751 11.4967 66.4751 12.514C66.4751 12.6913 66.4611 12.8733 66.4331 13.06H60.5671ZM62.9891 9.966C62.3357 9.966 61.7944 10.1527 61.3651 10.526C60.9357 10.89 60.6697 11.38 60.5671 11.996H65.2431C65.1404 11.3333 64.8791 10.8293 64.4591 10.484C64.0391 10.1387 63.5491 9.966 62.9891 9.966ZM73.6575 6.2H74.8755V16H73.6575V14.796C73.0508 15.72 72.1688 16.182 71.0115 16.182C70.0315 16.182 69.1962 15.8273 68.5055 15.118C67.8148 14.3993 67.4695 13.5267 67.4695 12.5C67.4695 11.4733 67.8148 10.6053 68.5055 9.896C69.1962 9.17733 70.0315 8.818 71.0115 8.818C72.1688 8.818 73.0508 9.28 73.6575 10.204V6.2ZM71.1655 15.006C71.8748 15.006 72.4675 14.768 72.9435 14.292C73.4195 13.8067 73.6575 13.2093 73.6575 12.5C73.6575 11.7907 73.4195 11.198 72.9435 10.722C72.4675 10.2367 71.8748 9.994 71.1655 9.994C70.4655 9.994 69.8775 10.2367 69.4015 10.722C68.9255 11.198 68.6875 11.7907 68.6875 12.5C68.6875 13.2093 68.9255 13.8067 69.4015 14.292C69.8775 14.768 70.4655 15.006 71.1655 15.006Z" fill="#00A9B7"/>
</svg>
