<svg width="94" height="22" viewBox="0 0 94 22" fill="none" xmlns="http://www.w3.org/2000/svg">
<rect width="94" height="22" rx="3" fill="#FEAC56" fill-opacity="0.15"/>
<path d="M24.91 5.9H26.405V15H24.91V5.9ZM31.5515 8.331C32.2968 8.331 32.8991 8.56933 33.3585 9.046C33.8178 9.52267 34.0475 10.177 34.0475 11.009V15H32.6435V11.152C32.6435 10.6667 32.5135 10.294 32.2535 10.034C31.9935 9.774 31.6381 9.644 31.1875 9.644C30.6935 9.644 30.2948 9.8 29.9915 10.112C29.6881 10.4153 29.5365 10.8833 29.5365 11.516V15H28.1325V8.5H29.5365V9.332C29.9611 8.66467 30.6328 8.331 31.5515 8.331ZM42.2542 5.9C43.1122 5.9 43.8272 6.186 44.3992 6.758C44.9799 7.33 45.2702 8.04067 45.2702 8.89C45.2702 9.73067 44.9799 10.4413 44.3992 11.022C43.8272 11.594 43.1122 11.88 42.2542 11.88H40.3952V15H38.9002V5.9H42.2542ZM42.2542 10.476C42.6962 10.476 43.0602 10.3287 43.3462 10.034C43.6322 9.73067 43.7752 9.34933 43.7752 8.89C43.7752 8.43067 43.6322 8.05367 43.3462 7.759C43.0602 7.45567 42.6962 7.304 42.2542 7.304H40.3952V10.476H42.2542ZM47.7543 9.592C48.1096 8.786 48.7769 8.383 49.7563 8.383V9.904C49.2189 9.86933 48.7509 9.99933 48.3523 10.294C47.9536 10.58 47.7543 11.0567 47.7543 11.724V15H46.3503V8.5H47.7543V9.592ZM53.5569 15.169C52.6036 15.169 51.7933 14.8397 51.1259 14.181C50.4586 13.5223 50.1249 12.712 50.1249 11.75C50.1249 10.788 50.4586 9.97767 51.1259 9.319C51.7933 8.66033 52.6036 8.331 53.5569 8.331C54.5189 8.331 55.3293 8.66033 55.9879 9.319C56.6553 9.97767 56.9889 10.788 56.9889 11.75C56.9889 12.712 56.6553 13.5223 55.9879 14.181C55.3293 14.8397 54.5189 15.169 53.5569 15.169ZM52.1139 13.219C52.5039 13.609 52.9849 13.804 53.5569 13.804C54.1289 13.804 54.6099 13.609 54.9999 13.219C55.3899 12.829 55.5849 12.3393 55.5849 11.75C55.5849 11.1607 55.3899 10.671 54.9999 10.281C54.6099 9.891 54.1289 9.696 53.5569 9.696C52.9849 9.696 52.5039 9.891 52.1139 10.281C51.7239 10.671 51.5289 11.1607 51.5289 11.75C51.5289 12.3393 51.7239 12.829 52.1139 13.219ZM63.4325 8.5H64.8105V14.701C64.8105 15.689 64.4855 16.4473 63.8355 16.976C63.1855 17.5047 62.3968 17.769 61.4695 17.769C59.9701 17.769 58.9431 17.2447 58.3885 16.196L59.5975 15.494C59.9355 16.1613 60.5681 16.495 61.4955 16.495C62.1021 16.495 62.5745 16.3347 62.9125 16.014C63.2591 15.702 63.4325 15.2643 63.4325 14.701V13.908C62.9038 14.662 62.1498 15.039 61.1705 15.039C60.2518 15.039 59.4761 14.714 58.8435 14.064C58.2108 13.4053 57.8945 12.6123 57.8945 11.685C57.8945 10.7577 58.2108 9.969 58.8435 9.319C59.4761 8.66033 60.2518 8.331 61.1705 8.331C62.1498 8.331 62.9038 8.708 63.4325 9.462V8.5ZM59.8835 13.141C60.2821 13.531 60.7761 13.726 61.3655 13.726C61.9548 13.726 62.4445 13.531 62.8345 13.141C63.2331 12.751 63.4325 12.2657 63.4325 11.685C63.4325 11.1043 63.2331 10.619 62.8345 10.229C62.4445 9.839 61.9548 9.644 61.3655 9.644C60.7761 9.644 60.2821 9.839 59.8835 10.229C59.4935 10.619 59.2985 11.1043 59.2985 11.685C59.2985 12.2657 59.4935 12.751 59.8835 13.141ZM67.8509 9.592C68.2063 8.786 68.8736 8.383 69.8529 8.383V9.904C69.3156 9.86933 68.8476 9.99933 68.4489 10.294C68.0503 10.58 67.8509 11.0567 67.8509 11.724V15H66.4469V8.5H67.8509V9.592ZM71.6906 12.348C71.7946 12.842 72.0329 13.2233 72.4056 13.492C72.7783 13.752 73.2333 13.882 73.7706 13.882C74.5159 13.882 75.0749 13.6133 75.4476 13.076L76.6046 13.752C75.9633 14.6967 75.0143 15.169 73.7576 15.169C72.7003 15.169 71.8466 14.8483 71.1966 14.207C70.5466 13.557 70.2216 12.738 70.2216 11.75C70.2216 10.7793 70.5423 9.969 71.1836 9.319C71.8249 8.66033 72.6483 8.331 73.6536 8.331C74.6069 8.331 75.3869 8.66467 75.9936 9.332C76.6089 9.99933 76.9166 10.8097 76.9166 11.763C76.9166 11.9103 76.8993 12.1053 76.8646 12.348H71.6906ZM71.6776 11.204H75.4996C75.4043 10.6753 75.1833 10.2767 74.8366 10.008C74.4986 9.73933 74.0999 9.605 73.6406 9.605C73.1206 9.605 72.6873 9.748 72.3406 10.034C71.9939 10.32 71.7729 10.71 71.6776 11.204ZM79.1591 10.294C79.1591 10.5107 79.2761 10.684 79.5101 10.814C79.7528 10.9353 80.0431 11.0437 80.3811 11.139C80.7278 11.2257 81.0744 11.3297 81.4211 11.451C81.7678 11.5723 82.0581 11.7803 82.2921 12.075C82.5348 12.361 82.6561 12.725 82.6561 13.167C82.6561 13.791 82.4134 14.2807 81.9281 14.636C81.4514 14.9913 80.8491 15.169 80.1211 15.169C79.4798 15.169 78.9294 15.0347 78.4701 14.766C78.0108 14.4973 77.6771 14.1247 77.4691 13.648L78.6781 12.946C78.9034 13.57 79.3844 13.882 80.1211 13.882C80.8578 13.882 81.2261 13.6393 81.2261 13.154C81.2261 12.946 81.1048 12.777 80.8621 12.647C80.6281 12.517 80.3378 12.4087 79.9911 12.322C79.6531 12.2267 79.3108 12.1183 78.9641 11.997C78.6174 11.8757 78.3228 11.6763 78.0801 11.399C77.8461 11.113 77.7291 10.7533 77.7291 10.32C77.7291 9.722 77.9544 9.241 78.4051 8.877C78.8644 8.513 79.4321 8.331 80.1081 8.331C80.6454 8.331 81.1221 8.45233 81.5381 8.695C81.9628 8.929 82.2878 9.25833 82.5131 9.683L81.3301 10.346C81.1048 9.852 80.6974 9.605 80.1081 9.605C79.8394 9.605 79.6141 9.66567 79.4321 9.787C79.2501 9.89967 79.1591 10.0687 79.1591 10.294ZM84.7577 10.294C84.7577 10.5107 84.8747 10.684 85.1087 10.814C85.3514 10.9353 85.6417 11.0437 85.9797 11.139C86.3264 11.2257 86.6731 11.3297 87.0197 11.451C87.3664 11.5723 87.6567 11.7803 87.8907 12.075C88.1334 12.361 88.2547 12.725 88.2547 13.167C88.2547 13.791 88.0121 14.2807 87.5267 14.636C87.0501 14.9913 86.4477 15.169 85.7197 15.169C85.0784 15.169 84.5281 15.0347 84.0687 14.766C83.6094 14.4973 83.2757 14.1247 83.0677 13.648L84.2767 12.946C84.5021 13.57 84.9831 13.882 85.7197 13.882C86.4564 13.882 86.8247 13.6393 86.8247 13.154C86.8247 12.946 86.7034 12.777 86.4607 12.647C86.2267 12.517 85.9364 12.4087 85.5897 12.322C85.2517 12.2267 84.9094 12.1183 84.5627 11.997C84.2161 11.8757 83.9214 11.6763 83.6787 11.399C83.4447 11.113 83.3277 10.7533 83.3277 10.32C83.3277 9.722 83.5531 9.241 84.0037 8.877C84.4631 8.513 85.0307 8.331 85.7067 8.331C86.2441 8.331 86.7207 8.45233 87.1367 8.695C87.5614 8.929 87.8864 9.25833 88.1117 9.683L86.9287 10.346C86.7034 9.852 86.2961 9.605 85.7067 9.605C85.4381 9.605 85.2127 9.66567 85.0307 9.787C84.8487 9.89967 84.7577 10.0687 84.7577 10.294Z" fill="#FEAC56"/>
<path fill-rule="evenodd" clip-rule="evenodd" d="M12.9994 6.9987C13.7358 6.9987 14.3327 6.40174 14.3327 5.66536C14.3327 4.92898 13.7358 4.33203 12.9994 4.33203C12.263 4.33203 11.6661 4.92898 11.6661 5.66536C11.6661 6.40174 12.263 6.9987 12.9994 6.9987ZM12.9994 17.6654C13.7358 17.6654 14.3327 17.0685 14.3327 16.3321C14.3327 15.5957 13.7358 14.9988 12.9994 14.9988C12.263 14.9988 11.6661 15.5957 11.6661 16.3321C11.6661 17.0685 12.263 17.6654 12.9994 17.6654ZM18.2851 9.48681C17.6474 9.855 16.832 9.6365 16.4638 8.99878C16.0956 8.36105 16.3141 7.5456 16.9518 7.17741C17.5895 6.80922 18.405 7.02772 18.7732 7.66544C19.1414 8.30317 18.9229 9.11862 18.2851 9.48681ZM7.22549 14.3323C7.59368 14.97 8.40913 15.1885 9.04685 14.8203C9.68458 14.4521 9.90308 13.6367 9.53489 12.9989C9.1667 12.3612 8.35124 12.1427 7.71352 12.5109C7.0758 12.8791 6.8573 13.6945 7.22549 14.3323ZM16.9515 14.82C16.3138 14.4518 16.0953 13.6363 16.4634 12.9986C16.8316 12.3609 17.6471 12.1424 18.2848 12.5106C18.9225 12.8788 19.141 13.6942 18.7728 14.3319C18.4047 14.9697 17.5892 15.1882 16.9515 14.82ZM7.22614 7.66561C6.85795 8.30333 7.07645 9.11878 7.71417 9.48697C8.35189 9.85516 9.16735 9.63666 9.53554 8.99894C9.90373 8.36122 9.68523 7.54576 9.0475 7.17757C8.40978 6.80938 7.59433 7.02788 7.22614 7.66561Z" fill="#FEAC56"/>
</svg>
